<?xml version="1.0" standalone="no"?>
<!DOCTYPE svg PUBLIC "-//W3C//DTD SVG 20010904//EN"
 "http://www.w3.org/TR/2001/REC-SVG-20010904/DTD/svg10.dtd">
<svg version="1.0" xmlns="http://www.w3.org/2000/svg"
 width="16.000000pt" height="16.000000pt" viewBox="0 0 16.000000 16.000000"
 preserveAspectRatio="xMidYMid meet">
<metadata>
Created by potrace 1.11, written by Peter Selinger 2001-2013
</metadata>
<g transform="translate(0.000000,16.000000) scale(0.001600,-0.001600)"
fill="#000000" stroke="none">
<path d="M1290 5015 c0 -1983 0 -3608 0 -3612 0 -5 1670 -8 3710 -8 l3710 0 0
3610 0 3610 -3710 3 -3710 2 0 -3605z m2788 2134 c471 -51 781 -238 948 -571
139 -276 164 -697 62 -1018 -55 -171 -141 -311 -265 -431 -130 -126 -277 -212
-470 -275 -180 -59 -305 -76 -595 -81 l-258 -5 0 -664 0 -664 -292 2 -293 3
-3 1837 -2 1837 22 13 c43 24 961 38 1146 17z m2633 -945 c153 -18 287 -56
317 -90 22 -25 22 -28 20 -282 -3 -255 -3 -257 -25 -260 -12 -2 -44 8 -72 22
-229 117 -585 156 -745 83 -99 -46 -149 -117 -150 -213 0 -135 81 -209 436
-395 420 -221 579 -377 650 -638 30 -108 29 -323 -1 -436 -72 -273 -265 -464
-560 -555 -215 -67 -565 -67 -828 1 -121 31 -240 80 -260 106 -15 20 -19 539
-4 561 6 11 28 2 96 -37 165 -94 351 -148 545 -158 197 -9 311 20 388 98 40
41 66 117 60 178 -13 135 -127 237 -463 413 -88 46 -185 100 -215 119 -192
124 -334 290 -379 444 -131 446 86 866 519 1003 194 61 384 71 671 36z"/>
<path d="M3590 6621 l-85 -6 0 -650 0 -650 240 0 c215 0 249 3 325 23 244 64
388 199 451 427 29 103 32 306 6 405 -28 106 -83 208 -147 271 -160 157 -381
207 -790 180z"/>
</g>
</svg>
